<svg xmlns="http://www.w3.org/2000/svg" xmlns:xlink="http://www.w3.org/1999/xlink" width="500" zoomAndPan="magnify" viewBox="0 0 375 374.999991" height="500" preserveAspectRatio="xMidYMid meet" version="1.0"><defs><g/></defs><path fill="#778192" d="M 109.738281 152.191406 C 110.660156 150.03125 111.660156 147.90625 112.738281 145.820312 C 113.8125 143.734375 114.964844 141.691406 116.191406 139.6875 C 117.417969 137.683594 118.714844 135.730469 120.085938 133.820312 C 121.453125 131.914062 122.890625 130.058594 124.398438 128.253906 C 125.902344 126.453125 127.46875 124.707031 129.101562 123.019531 C 130.734375 121.328125 132.425781 119.703125 134.175781 118.136719 C 135.929688 116.574219 137.734375 115.074219 139.59375 113.640625 C 141.453125 112.207031 143.363281 110.84375 145.324219 109.550781 C 147.285156 108.257812 149.289062 107.039062 151.339844 105.890625 C 153.386719 104.746094 155.476562 103.671875 157.605469 102.679688 C 159.730469 101.683594 161.890625 100.769531 164.085938 99.933594 C 166.28125 99.097656 168.503906 98.339844 170.753906 97.667969 C 173 96.992188 175.273438 96.398438 177.566406 95.890625 C 179.859375 95.382812 182.164062 94.960938 184.488281 94.621094 C 186.8125 94.277344 189.144531 94.023438 191.488281 93.855469 C 193.832031 93.683594 196.175781 93.601562 198.523438 93.601562 L 320.480469 93.601562 C 318.90625 91.539062 317.285156 89.515625 315.617188 87.527344 C 313.945312 85.542969 312.230469 83.597656 310.46875 81.695312 C 308.707031 79.789062 306.898438 77.929688 305.046875 76.113281 C 303.195312 74.296875 301.300781 72.523438 299.363281 70.796875 C 297.429688 69.070312 295.449219 67.390625 293.433594 65.757812 C 291.417969 64.128906 289.363281 62.546875 287.269531 61.011719 C 285.175781 59.480469 283.046875 57.996094 280.882812 56.566406 C 278.71875 55.132812 276.523438 53.753906 274.292969 52.429688 C 272.0625 51.101562 269.800781 49.832031 267.511719 48.613281 C 265.222656 47.394531 262.902344 46.234375 260.554688 45.125 C 258.207031 44.019531 255.835938 42.96875 253.441406 41.976562 C 251.042969 40.984375 248.625 40.050781 246.183594 39.171875 C 243.742188 38.296875 241.277344 37.476562 238.796875 36.71875 C 236.316406 35.957031 233.820312 35.257812 231.304688 34.621094 C 228.789062 33.980469 226.261719 33.402344 223.71875 32.882812 C 221.179688 32.363281 218.625 31.90625 216.0625 31.511719 C 213.496094 31.117188 210.925781 30.78125 208.34375 30.507812 C 205.765625 30.234375 203.179688 30.023438 200.589844 29.875 C 198 29.726562 195.40625 29.640625 192.8125 29.617188 C 190.21875 29.589844 187.625 29.628906 185.03125 29.726562 C 182.441406 29.828125 179.851562 29.988281 177.265625 30.210938 C 174.683594 30.4375 172.105469 30.722656 169.53125 31.066406 C 166.960938 31.414062 164.398438 31.824219 161.847656 32.292969 C 159.296875 32.761719 156.757812 33.292969 154.230469 33.886719 C 151.707031 34.476562 149.195312 35.128906 146.699219 35.839844 C 144.207031 36.550781 141.730469 37.324219 139.269531 38.152344 C 136.8125 38.984375 134.375 39.871094 131.960938 40.820312 C 129.546875 41.765625 127.15625 42.773438 124.789062 43.832031 C 122.421875 44.894531 120.078125 46.011719 117.765625 47.1875 C 115.453125 48.359375 113.167969 49.589844 110.914062 50.871094 C 108.660156 52.15625 106.433594 53.492188 104.246094 54.882812 C 102.054688 56.273438 99.898438 57.714844 97.777344 59.207031 C 95.652344 60.699219 93.570312 62.242188 91.523438 63.835938 C 89.472656 65.429688 87.464844 67.070312 85.496094 68.757812 C 83.527344 70.449219 81.597656 72.183594 79.714844 73.964844 C 77.828125 75.746094 75.984375 77.574219 74.1875 79.441406 C 72.386719 81.3125 70.636719 83.226562 68.929688 85.179688 C 67.222656 87.132812 65.5625 89.125 63.949219 91.160156 C 62.339844 93.191406 60.777344 95.265625 59.265625 97.371094 C 57.753906 99.480469 56.292969 101.625 54.882812 103.800781 C 53.472656 105.980469 52.117188 108.191406 50.8125 110.433594 C 49.511719 112.675781 48.261719 114.949219 47.066406 117.253906 C 45.871094 119.554688 44.734375 121.886719 43.648438 124.242188 C 42.566406 126.601562 41.539062 128.984375 40.570312 131.390625 C 39.601562 133.796875 38.691406 136.226562 37.839844 138.675781 C 36.988281 141.125 36.195312 143.597656 35.460938 146.085938 C 34.726562 148.574219 34.050781 151.078125 33.4375 153.597656 C 32.824219 156.117188 32.269531 158.652344 31.777344 161.199219 C 31.285156 163.746094 30.851562 166.304688 30.484375 168.871094 C 30.113281 171.441406 29.804688 174.015625 29.558594 176.597656 C 29.308594 179.179688 29.125 181.769531 29.003906 184.359375 C 28.878906 186.953125 28.820312 189.542969 28.820312 192.140625 C 28.820312 194.734375 28.886719 197.324219 29.011719 199.917969 C 29.136719 202.507812 29.324219 205.097656 29.574219 207.679688 C 29.824219 210.261719 30.132812 212.835938 30.507812 215.402344 C 30.878906 217.96875 31.3125 220.527344 31.808594 223.074219 C 32.304688 225.621094 32.859375 228.15625 33.476562 230.675781 C 34.09375 233.195312 34.769531 235.699219 35.507812 238.1875 C 36.246094 240.671875 37.039062 243.140625 37.894531 245.59375 C 38.75 248.042969 39.664062 250.46875 40.636719 252.875 C 41.605469 255.28125 42.636719 257.660156 43.722656 260.019531 C 44.804688 262.375 45.949219 264.703125 47.144531 267.003906 C 48.34375 269.308594 49.59375 271.578125 50.898438 273.820312 C 52.207031 276.0625 53.5625 278.273438 54.976562 280.449219 Z M 109.738281 152.191406 " fill-opacity="1" fill-rule="nonzero"/><path fill="#778192" d="M 294.160156 156.015625 L 195.160156 156.015625 C 193.742188 156.015625 192.335938 156.117188 190.933594 156.324219 C 189.53125 156.53125 188.152344 156.835938 186.796875 157.242188 C 185.441406 157.648438 184.121094 158.152344 182.835938 158.753906 C 181.554688 159.351562 180.324219 160.042969 179.140625 160.824219 C 177.957031 161.605469 176.839844 162.464844 175.785156 163.410156 C 174.726562 164.355469 173.746094 165.367188 172.839844 166.457031 C 171.929688 167.542969 171.109375 168.691406 170.367188 169.898438 C 169.628906 171.105469 168.980469 172.363281 168.425781 173.664062 L 155.269531 204.554688 L 314.40625 204.554688 C 313.671875 206.277344 312.871094 207.972656 312.011719 209.636719 C 311.152344 211.304688 310.234375 212.9375 309.253906 214.535156 C 308.273438 216.136719 307.238281 217.695312 306.144531 219.21875 C 305.050781 220.742188 303.90625 222.222656 302.703125 223.664062 C 301.503906 225.101562 300.25 226.496094 298.949219 227.84375 C 297.644531 229.195312 296.292969 230.492188 294.898438 231.742188 C 293.5 232.992188 292.058594 234.1875 290.574219 235.332031 C 289.085938 236.476562 287.5625 237.566406 286 238.601562 C 284.433594 239.632812 282.832031 240.609375 281.199219 241.523438 C 279.5625 242.441406 277.894531 243.296875 276.195312 244.089844 C 274.5 244.886719 272.773438 245.617188 271.023438 246.285156 C 269.269531 246.957031 267.496094 247.558594 265.703125 248.097656 C 263.90625 248.636719 262.09375 249.113281 260.261719 249.519531 C 258.433594 249.925781 256.589844 250.265625 254.734375 250.539062 C 252.878906 250.8125 251.019531 251.015625 249.148438 251.152344 C 247.277344 251.289062 245.40625 251.355469 243.53125 251.359375 L 155.929688 251.359375 C 154.402344 251.359375 152.886719 251.46875 151.375 251.691406 C 149.867188 251.914062 148.382812 252.242188 146.921875 252.683594 C 145.460938 253.121094 144.039062 253.664062 142.65625 254.3125 C 141.277344 254.957031 139.949219 255.703125 138.675781 256.542969 C 137.402344 257.382812 136.199219 258.3125 135.058594 259.328125 C 133.921875 260.34375 132.867188 261.441406 131.886719 262.609375 C 130.910156 263.78125 130.023438 265.019531 129.226562 266.320312 C 128.429688 267.621094 127.734375 268.972656 127.132812 270.375 L 102.515625 328.074219 C 106.042969 330.375 109.65625 332.535156 113.355469 334.550781 C 117.050781 336.570312 120.820312 338.441406 124.664062 340.167969 C 128.503906 341.894531 132.410156 343.46875 136.375 344.890625 C 140.339844 346.308594 144.351562 347.578125 148.417969 348.6875 C 152.480469 349.796875 156.582031 350.746094 160.71875 351.535156 C 164.855469 352.328125 169.015625 352.957031 173.203125 353.421875 C 177.390625 353.890625 181.585938 354.195312 185.796875 354.335938 C 190.007812 354.476562 194.214844 354.453125 198.421875 354.265625 C 202.632812 354.078125 206.824219 353.730469 211.007812 353.214844 C 215.1875 352.703125 219.34375 352.027344 223.46875 351.191406 C 227.597656 350.355469 231.6875 349.363281 235.738281 348.207031 C 239.789062 347.054688 243.789062 345.746094 247.738281 344.28125 C 251.6875 342.8125 255.574219 341.199219 259.398438 339.429688 C 263.222656 337.664062 266.96875 335.75 270.644531 333.691406 C 274.320312 331.632812 277.910156 329.433594 281.414062 327.097656 C 284.917969 324.757812 288.324219 322.289062 291.636719 319.683594 C 294.949219 317.082031 298.152344 314.355469 301.253906 311.5 C 304.351562 308.648438 307.335938 305.679688 310.203125 302.597656 C 313.074219 299.511719 315.816406 296.320312 318.4375 293.023438 C 321.058594 289.726562 323.546875 286.332031 325.902344 282.839844 C 328.261719 279.347656 330.476562 275.769531 332.554688 272.109375 C 334.632812 268.445312 336.566406 264.703125 338.355469 260.890625 C 340.140625 257.078125 341.777344 253.199219 343.265625 249.257812 C 344.75 245.316406 346.082031 241.324219 347.257812 237.277344 C 348.433594 233.234375 349.449219 229.148438 350.304688 225.027344 C 351.164062 220.902344 351.859375 216.75 352.394531 212.574219 C 352.929688 208.394531 353.300781 204.203125 353.511719 199.996094 C 353.71875 195.789062 353.765625 191.578125 353.648438 187.371094 C 353.527344 183.160156 353.246094 178.960938 352.800781 174.769531 C 352.355469 170.582031 351.75 166.417969 350.980469 162.277344 C 350.210938 158.132812 349.285156 154.027344 348.195312 149.960938 C 347.109375 145.890625 345.863281 141.871094 344.460938 137.898438 C 340.953125 140.808594 337.222656 143.390625 333.265625 145.652344 C 329.308594 147.914062 325.183594 149.816406 320.898438 151.359375 C 316.609375 152.90625 312.222656 154.066406 307.730469 154.851562 C 303.242188 155.632812 298.71875 156.019531 294.160156 156.015625 Z M 294.160156 156.015625 " fill-opacity="1" fill-rule="nonzero"/><path fill="#1a36b4" d="M 109.738281 152.191406 C 110.660156 150.03125 111.660156 147.90625 112.738281 145.820312 C 113.8125 143.734375 114.964844 141.691406 116.191406 139.6875 C 117.417969 137.683594 118.714844 135.730469 120.085938 133.820312 C 121.453125 131.914062 122.890625 130.058594 124.398438 128.253906 C 125.902344 126.453125 127.46875 124.707031 129.101562 123.019531 C 130.734375 121.328125 132.425781 119.703125 134.175781 118.136719 C 135.929688 116.574219 137.734375 115.074219 139.59375 113.640625 C 141.453125 112.207031 143.363281 110.84375 145.324219 109.550781 C 147.285156 108.257812 149.289062 107.039062 151.339844 105.890625 C 153.386719 104.746094 155.476562 103.671875 157.605469 102.679688 C 159.730469 101.683594 161.890625 100.769531 164.085938 99.933594 C 166.28125 99.097656 168.503906 98.339844 170.753906 97.667969 C 173 96.992188 175.273438 96.398438 177.566406 95.890625 C 179.859375 95.382812 182.164062 94.960938 184.488281 94.621094 C 186.8125 94.277344 189.144531 94.023438 191.488281 93.855469 C 193.832031 93.683594 196.175781 93.601562 198.523438 93.601562 L 320.457031 93.601562 C 318.886719 91.539062 317.265625 89.515625 315.59375 87.53125 C 313.925781 85.546875 312.210938 83.601562 310.449219 81.699219 C 308.683594 79.796875 306.878906 77.933594 305.027344 76.117188 C 303.175781 74.300781 301.28125 72.53125 299.34375 70.804688 C 297.410156 69.078125 295.433594 67.402344 293.414062 65.769531 C 291.398438 64.136719 289.34375 62.554688 287.25 61.023438 C 285.160156 59.492188 283.03125 58.007812 280.867188 56.578125 C 278.703125 55.148438 276.507812 53.769531 274.277344 52.445312 C 272.046875 51.117188 269.789062 49.847656 267.496094 48.628906 C 265.207031 47.414062 262.886719 46.25 260.542969 45.144531 C 258.195312 44.039062 255.824219 42.988281 253.429688 41.996094 C 251.03125 41.003906 248.613281 40.070312 246.171875 39.191406 C 243.730469 38.316406 241.269531 37.5 238.789062 36.738281 C 236.308594 35.980469 233.8125 35.28125 231.296875 34.644531 C 228.785156 34.003906 226.257812 33.425781 223.714844 32.90625 C 221.175781 32.390625 218.621094 31.933594 216.058594 31.535156 C 213.496094 31.140625 210.921875 30.804688 208.34375 30.535156 C 205.765625 30.261719 203.179688 30.050781 200.589844 29.902344 C 198 29.753906 195.410156 29.667969 192.816406 29.640625 C 190.222656 29.617188 187.628906 29.65625 185.035156 29.753906 C 182.445312 29.855469 179.855469 30.015625 177.273438 30.238281 C 174.6875 30.460938 172.109375 30.746094 169.539062 31.09375 C 166.96875 31.441406 164.410156 31.851562 161.859375 32.320312 C 159.308594 32.789062 156.769531 33.320312 154.242188 33.910156 C 151.71875 34.503906 149.207031 35.15625 146.714844 35.867188 C 144.21875 36.578125 141.742188 37.347656 139.285156 38.179688 C 136.828125 39.007812 134.394531 39.898438 131.976562 40.84375 C 129.5625 41.792969 127.171875 42.796875 124.804688 43.855469 C 122.4375 44.917969 120.097656 46.035156 117.785156 47.210938 C 115.472656 48.382812 113.1875 49.613281 110.933594 50.894531 C 108.679688 52.179688 106.457031 53.515625 104.269531 54.902344 C 102.078125 56.292969 99.921875 57.734375 97.800781 59.226562 C 95.679688 60.71875 93.59375 62.261719 91.546875 63.855469 C 89.5 65.449219 87.492188 67.089844 85.523438 68.777344 C 83.554688 70.464844 81.628906 72.199219 79.742188 73.980469 C 77.855469 75.761719 76.015625 77.589844 74.214844 79.457031 C 72.417969 81.328125 70.664062 83.238281 68.960938 85.191406 C 67.253906 87.144531 65.59375 89.136719 63.984375 91.171875 C 62.371094 93.203125 60.808594 95.273438 59.296875 97.382812 C 57.785156 99.488281 56.324219 101.632812 54.917969 103.808594 C 53.507812 105.988281 52.152344 108.195312 50.847656 110.4375 C 49.542969 112.679688 48.292969 114.953125 47.101562 117.257812 C 45.90625 119.558594 44.765625 121.886719 43.683594 124.246094 C 42.601562 126.601562 41.574219 128.984375 40.605469 131.390625 C 39.636719 133.796875 38.726562 136.222656 37.875 138.675781 C 37.023438 141.125 36.226562 143.59375 35.496094 146.078125 C 34.761719 148.566406 34.085938 151.070312 33.472656 153.589844 C 32.855469 156.113281 32.304688 158.644531 31.8125 161.191406 C 31.316406 163.738281 30.886719 166.296875 30.515625 168.863281 C 30.144531 171.429688 29.835938 174.003906 29.589844 176.585938 C 29.34375 179.167969 29.15625 181.753906 29.035156 184.34375 C 28.910156 186.9375 28.851562 189.527344 28.851562 192.121094 C 28.851562 194.714844 28.914062 197.308594 29.039062 199.898438 C 29.164062 202.492188 29.351562 205.078125 29.601562 207.660156 C 29.851562 210.242188 30.160156 212.816406 30.535156 215.382812 C 30.90625 217.949219 31.339844 220.503906 31.835938 223.050781 C 32.332031 225.597656 32.886719 228.128906 33.503906 230.648438 C 34.117188 233.167969 34.792969 235.671875 35.53125 238.160156 C 36.265625 240.648438 37.0625 243.117188 37.917969 245.5625 C 38.773438 248.011719 39.683594 250.441406 40.65625 252.847656 C 41.625 255.25 42.652344 257.632812 43.738281 259.988281 C 44.824219 262.34375 45.964844 264.671875 47.160156 266.972656 C 48.355469 269.277344 49.605469 271.546875 50.914062 273.789062 C 52.21875 276.03125 53.574219 278.238281 54.988281 280.414062 Z M 109.738281 152.191406 " fill-opacity="1" fill-rule="nonzero"/><path fill="#9ca3af" d="M 294.160156 156.015625 L 195.160156 156.015625 C 193.742188 156.015625 192.335938 156.117188 190.933594 156.324219 C 189.53125 156.53125 188.152344 156.835938 186.796875 157.242188 C 185.441406 157.648438 184.121094 158.152344 182.835938 158.753906 C 181.554688 159.351562 180.324219 160.042969 179.140625 160.824219 C 177.957031 161.605469 176.839844 162.464844 175.785156 163.410156 C 174.726562 164.355469 173.746094 165.367188 172.839844 166.457031 C 171.929688 167.542969 171.109375 168.691406 170.367188 169.898438 C 169.628906 171.105469 168.980469 172.363281 168.425781 173.664062 L 155.269531 204.554688 L 181.140625 204.554688 L 185.644531 194.007812 C 186.199219 192.707031 186.847656 191.449219 187.589844 190.242188 C 188.328125 189.035156 189.152344 187.886719 190.058594 186.796875 C 190.964844 185.710938 191.945312 184.695312 193.003906 183.75 C 194.058594 182.804688 195.175781 181.945312 196.359375 181.164062 C 197.542969 180.382812 198.773438 179.691406 200.058594 179.089844 C 201.339844 178.492188 202.660156 177.988281 204.015625 177.578125 C 205.371094 177.171875 206.75 176.863281 208.152344 176.660156 C 209.554688 176.453125 210.960938 176.351562 212.378906 176.351562 L 290.027344 176.351562 C 322.496094 176.765625 352.144531 150.789062 359.71875 120.996094 C 357.925781 123.679688 355.976562 126.246094 353.867188 128.691406 C 351.757812 131.136719 349.507812 133.441406 347.113281 135.613281 C 344.71875 137.78125 342.203125 139.792969 339.5625 141.652344 C 336.921875 143.511719 334.179688 145.203125 331.332031 146.722656 C 328.480469 148.246094 325.550781 149.585938 322.539062 150.746094 C 319.523438 151.910156 316.453125 152.882812 313.320312 153.664062 C 310.1875 154.449219 307.019531 155.035156 303.8125 155.429688 C 300.605469 155.824219 297.390625 156.019531 294.160156 156.015625 Z M 294.160156 156.015625 " fill-opacity="1" fill-rule="nonzero"/><path fill="#9ca3af" d="M 243.53125 251.359375 L 155.929688 251.359375 C 154.402344 251.359375 152.886719 251.46875 151.375 251.691406 C 149.867188 251.914062 148.382812 252.242188 146.921875 252.683594 C 145.460938 253.121094 144.039062 253.664062 142.65625 254.3125 C 141.277344 254.957031 139.949219 255.703125 138.675781 256.542969 C 137.402344 257.382812 136.199219 258.3125 135.058594 259.328125 C 133.921875 260.34375 132.867188 261.441406 131.886719 262.609375 C 130.910156 263.78125 130.023438 265.019531 129.226562 266.320312 C 128.429688 267.621094 127.734375 268.972656 127.132812 270.375 L 91.113281 354.777344 C 104.269531 354.917969 119.746094 346.675781 123.394531 339.628906 L 144.289062 290.707031 C 144.886719 289.304688 145.585938 287.953125 146.382812 286.652344 C 147.179688 285.351562 148.066406 284.117188 149.042969 282.945312 C 150.019531 281.773438 151.078125 280.679688 152.214844 279.664062 C 153.351562 278.648438 154.558594 277.71875 155.832031 276.878906 C 157.105469 276.039062 158.429688 275.296875 159.8125 274.648438 C 161.195312 274.003906 162.617188 273.460938 164.078125 273.023438 C 165.539062 272.585938 167.023438 272.253906 168.53125 272.03125 C 170.039062 271.8125 171.558594 271.703125 173.082031 271.703125 L 248.484375 271.703125 C 279.351562 271.703125 314.40625 243.847656 314.40625 204.554688 C 313.671875 206.277344 312.871094 207.972656 312.011719 209.636719 C 311.152344 211.304688 310.234375 212.9375 309.253906 214.535156 C 308.273438 216.136719 307.238281 217.695312 306.144531 219.21875 C 305.050781 220.742188 303.90625 222.222656 302.703125 223.664062 C 301.503906 225.101562 300.25 226.496094 298.949219 227.84375 C 297.644531 229.195312 296.292969 230.492188 294.898438 231.742188 C 293.5 232.992188 292.058594 234.1875 290.574219 235.332031 C 289.085938 236.476562 287.5625 237.566406 286 238.601562 C 284.433594 239.632812 282.832031 240.609375 281.199219 241.523438 C 279.5625 242.441406 277.894531 243.296875 276.199219 244.089844 C 274.5 244.886719 272.773438 245.617188 271.023438 246.285156 C 269.269531 246.957031 267.496094 247.558594 265.703125 248.097656 C 263.90625 248.636719 262.09375 249.113281 260.261719 249.519531 C 258.433594 249.925781 256.589844 250.265625 254.734375 250.539062 C 252.878906 250.8125 251.019531 251.015625 249.148438 251.152344 C 247.277344 251.289062 245.40625 251.355469 243.53125 251.359375 Z M 243.53125 251.359375 " fill-opacity="1" fill-rule="nonzero"/><g fill="#1a36b4" fill-opacity="1"><g transform="translate(184.487848, 58.046561)"><g><path d="M 0.109375 0 L 0.03125 0 L 0.1875 -0.28125 L 0.03125 -0.53125 L 0.125 -0.53125 L 0.25 -0.328125 L 0.265625 -0.328125 L 0.390625 -0.53125 L 0.46875 -0.53125 L 0.3125 -0.28125 L 0.484375 0 L 0.390625 0 L 0.25 -0.234375 Z M 0.109375 0 "/></g></g><g transform="translate(184.9898, 58.046561)"><g><path d="M 0.109375 0 L 0.03125 0 L 0.1875 -0.28125 L 0.03125 -0.53125 L 0.125 -0.53125 L 0.25 -0.328125 L 0.265625 -0.328125 L 0.390625 -0.53125 L 0.46875 -0.53125 L 0.3125 -0.28125 L 0.484375 0 L 0.390625 0 L 0.25 -0.234375 Z M 0.109375 0 "/></g></g><g transform="translate(185.491752, 58.046561)"><g><path d="M 0.109375 0 L 0.03125 0 L 0.1875 -0.28125 L 0.03125 -0.53125 L 0.125 -0.53125 L 0.25 -0.328125 L 0.265625 -0.328125 L 0.390625 -0.53125 L 0.46875 -0.53125 L 0.3125 -0.28125 L 0.484375 0 L 0.390625 0 L 0.25 -0.234375 Z M 0.109375 0 "/></g></g><g transform="translate(185.993704, 58.046561)"><g><path d="M 0.109375 0 L 0.03125 0 L 0.1875 -0.28125 L 0.03125 -0.53125 L 0.125 -0.53125 L 0.25 -0.328125 L 0.265625 -0.328125 L 0.390625 -0.53125 L 0.46875 -0.53125 L 0.3125 -0.28125 L 0.484375 0 L 0.390625 0 L 0.25 -0.234375 Z M 0.109375 0 "/></g></g><g transform="translate(186.495656, 58.046561)"><g><path d="M 0.109375 0 L 0.03125 0 L 0.1875 -0.28125 L 0.03125 -0.53125 L 0.125 -0.53125 L 0.25 -0.328125 L 0.265625 -0.328125 L 0.390625 -0.53125 L 0.46875 -0.53125 L 0.3125 -0.28125 L 0.484375 0 L 0.390625 0 L 0.25 -0.234375 Z M 0.109375 0 "/></g></g><g transform="translate(186.997608, 58.046561)"><g><path d="M 0.109375 0 L 0.03125 0 L 0.1875 -0.28125 L 0.03125 -0.53125 L 0.125 -0.53125 L 0.25 -0.328125 L 0.265625 -0.328125 L 0.390625 -0.53125 L 0.46875 -0.53125 L 0.3125 -0.28125 L 0.484375 0 L 0.390625 0 L 0.25 -0.234375 Z M 0.109375 0 "/></g></g></g></svg>